# xmcd
#
# Track frame offsets:
#	150
#	17333
#	26956
#	43734
#	59544
#	82344
#	97584
#	114437
#	130382
#	142007
#
# Disc length: 1992 seconds
#
# Revision: 1
# Processed by: cddbd v1.5.2PL0 Copyright (c) Steve Scherf et al.
# Submitted via: audiograbber 1.83.01
#
DISCID=8707c60a
DTITLE=Johnny Cash - Johnny Cash At San Quentin
DYEAR=1969
DGENRE=Country
TTITLE0=Wanted Man
TTITLE1=Wreck Of Old 97
TTITLE2=I Walk The Line
TTITLE3=Darling Companion
TTITLE4=Starkville City Jail
TTITLE5=San Qsuentin
TTITLE6=San Quentin
TTITLE7=A Boy Named Sue
TTITLE8=Peace In The Valley
TTITLE9=Folsome Prison Blues
EXTD=
EXTT0=
EXTT1=
EXTT2=
EXTT3=
EXTT4=
EXTT5=
EXTT6=
EXTT7=
EXTT8=
EXTT9=
PLAYORDER=
